<svg xmlns="http://www.w3.org/2000/svg" width="760" height="220" viewBox="0 0 760 220" role="img" aria-labelledby="title desc">
  <title id="title">Buddy virtual cursor SVG options</title>
  <desc id="desc">Four gold virtual cursor SVG options for selecting Buddy's transformed head sparkle cursor.</desc>
  <defs>
    <radialGradient id="cursorGoldA" cx="-10" cy="-34" r="104" gradientUnits="userSpaceOnUse">
      <stop offset="0%" stop-color="#f7d77a"/>
      <stop offset="58%" stop-color="#dfad50"/>
      <stop offset="100%" stop-color="#c78b31"/>
    </radialGradient>
    <linearGradient id="cursorGoldB" x1="-42" y1="-72" x2="42" y2="72" gradientUnits="userSpaceOnUse">
      <stop offset="0%" stop-color="#f6d36f"/>
      <stop offset="44%" stop-color="#e2b65f"/>
      <stop offset="100%" stop-color="#bd7f2a"/>
    </linearGradient>
    <radialGradient id="cursorGoldC" cx="-18" cy="-42" r="116" gradientUnits="userSpaceOnUse">
      <stop offset="0%" stop-color="#ffe08a"/>
      <stop offset="54%" stop-color="#e3b55a"/>
      <stop offset="100%" stop-color="#c58c35"/>
    </radialGradient>
    <linearGradient id="cursorGoldD" x1="0" y1="-74" x2="0" y2="74" gradientUnits="userSpaceOnUse">
      <stop offset="0%" stop-color="#f8d979"/>
      <stop offset="62%" stop-color="#dba84d"/>
      <stop offset="100%" stop-color="#bb7f2d"/>
    </linearGradient>
  </defs>
  <rect width="760" height="220" rx="18" fill="#fbf8f1"/>
  <g transform="translate(95 96)">
    <path fill="url(#cursorGoldA)" stroke="#171818" stroke-width="8" stroke-linejoin="round" stroke-linecap="round" d="M0-70 C6-38 19-22 45-10 C23-5 11 12 26 46 C10 34 2 31 0 70 C-2 31 -10 34 -26 46 C-11 12 -23-5 -45-10 C-19-22 -6-38 0-70Z"/>
    <text x="0" y="104" text-anchor="middle" fill="#171818" font-family="Inter, Arial, sans-serif" font-size="18" font-weight="700">A fan</text>
  </g>
  <g transform="translate(285 96)">
    <path fill="url(#cursorGoldB)" stroke="#171818" stroke-width="7" stroke-linejoin="round" stroke-linecap="round" d="M0-74 C4-43 13-23 35-7 C15-4 8 13 38 48 C15 38 4 28 0 74 C-4 28 -15 38 -38 48 C-8 13 -15-4 -35-7 C-13-23 -4-43 0-74Z"/>
    <text x="0" y="104" text-anchor="middle" fill="#171818" font-family="Inter, Arial, sans-serif" font-size="18" font-weight="700">B pointer</text>
  </g>
  <g transform="translate(475 96)">
    <path fill="url(#cursorGoldC)" stroke="#171818" stroke-width="8" stroke-linejoin="round" stroke-linecap="round" d="M0-68 C8-41 20-25 43-14 C57-8 56 6 41 11 C22 18 22 30 37 50 C14 47 5 39 0 69 C-5 39 -14 47 -37 50 C-22 30 -22 18 -41 11 C-56 6 -57-8 -43-14 C-20-25 -8-41 0-68Z"/>
    <text x="0" y="104" text-anchor="middle" fill="#171818" font-family="Inter, Arial, sans-serif" font-size="18" font-weight="700">C soft</text>
  </g>
  <g transform="translate(665 96)">
    <path fill="url(#cursorGoldD)" stroke="#171818" stroke-width="10" stroke-linejoin="round" stroke-linecap="round" d="M0-70 L17-24 L56-8 L22 16 L43 54 L8 38 L0 72 L-8 38 L-43 54 L-22 16 L-56-8 L-17-24Z"/>
    <text x="0" y="104" text-anchor="middle" fill="#171818" font-family="Inter, Arial, sans-serif" font-size="18" font-weight="700">D bold</text>
  </g>
</svg>
